<svg width="24,5px" height="21px" viewBox="0 0 17 14" version="1.1" xmlns="http://www.w3.org/2000/svg" xmlns:xlink="http://www.w3.org/1999/xlink" xmlns:sketch="http://www.bohemiancoding.com/sketch/ns">
    <!-- Generator: Sketch 3.4.4 (17249) - http://www.bohemiancoding.com/sketch -->
    <title>Shape</title>
    <style>
   		#like {
     		fill: #e74c3c;
            cursor: hand;
     	}
     	#like:hover {
     		fill: grey;
     	}
     </style>
    <path d="M12.0814393,0 C11.7105491,0 11.3320581,0.0653338 10.9461869,0.1958895 C10.5602055,0.326557 10.2012119,0.5028687 9.8693163,0.7246009 C9.5372005,0.946333 9.25168,1.1545285 9.012204,1.3489636 C8.7729484,1.5433987 8.5455895,1.750028 8.3302374,1.9687395 C8.1147752,1.750028 7.8874163,1.5433987 7.6481607,1.3489636 C7.4087949,1.1545285 7.1231642,0.9464448 6.7910484,0.7246009 C6.4589325,0.5027569 6.0999389,0.326557 5.7140677,0.1958895 C5.3281964,0.0653338 4.9497055,0 4.5788152,0 C3.2385652,0 2.1885724,0.376788 1.4287265,1.130252 C0.6688807,1.8837161 0.2889578,2.9288328 0.2889578,4.2656023 C0.2889578,4.6727078 0.3593465,5.0921194 0.4999037,5.5233894 C0.6404608,5.9547714 0.8006255,6.3224976 0.9800672,6.6262326 C1.1595089,6.9299676 1.3629643,7.2263189 1.5903232,7.514951 C1.8176821,7.8035831 1.9837951,8.0024932 2.0884419,8.1119049 C2.1930887,8.2212047 2.2753741,8.300187 2.3351881,8.3487398 L7.9353335,13.8357706 C8.0430646,13.9452941 8.1746993,14 8.3302374,14 C8.4857756,14 8.6174103,13.9452941 8.7251414,13.8359943 L14.3163643,8.367087 C15.6864662,6.9757236 16.3715171,5.6085247 16.3715171,4.2656023 C16.3715171,2.9288328 15.991484,1.8837161 15.2316382,1.130252 C14.4717923,0.3766761 13.4217995,0 12.0814393,0 L12.0814393,0 Z" id="like"></path>
</svg>