<?xml version="1.0" encoding="UTF-8" standalone="no"?>
<svg width="17px" height="14px" viewBox="0 0 17 14" version="1.1" xmlns="http://www.w3.org/2000/svg" xmlns:xlink="http://www.w3.org/1999/xlink" xmlns:sketch="http://www.bohemiancoding.com/sketch/ns">
    <!-- Generator: Sketch 3.4.4 (17249) - http://www.bohemiancoding.com/sketch -->
    <title>Shape</title>
    <desc>Created with Sketch.</desc>
    <defs></defs>
    <g id="Page-1" stroke="none" stroke-width="1" fill="none" fill-rule="evenodd" sketch:type="MSPage">
        <g id="Home" sketch:type="MSArtboardGroup" transform="translate(-212.000000, -1222.000000)" fill="#818181">
            <g id="New" sketch:type="MSLayerGroup">
                <g id="Récemment-créés" transform="translate(156.000000, 908.000000)" sketch:type="MSShapeGroup">
                    <g id="Rectangle-31-+-Rectangle-31-Copy-+-Rectangle-31-Copy-2" transform="translate(26.134159, 78.000000)">
                        <g id="Rectangle-31-+-Rectangle-34">
                            <g id="Bar" transform="translate(0.000000, 222.000000)">
                                <path class='like' d="M41.9472803,14 C41.5763901,14 41.1978991,14.0653338 40.8120279,14.1958895 C40.4260465,14.326557 40.0670529,14.5028687 39.7351573,14.7246009 C39.4030415,14.946333 39.117521,15.1545285 38.878045,15.3489636 C38.6387894,15.5433987 38.4114305,15.750028 38.1960784,15.9687395 C37.9806162,15.750028 37.7532573,15.5433987 37.5140017,15.3489636 C37.2746359,15.1545285 36.9890052,14.9464448 36.6568894,14.7246009 C36.3247735,14.5027569 35.9657799,14.326557 35.5799087,14.1958895 C35.1940374,14.0653338 34.8155465,14 34.4446562,14 C33.1044062,14 32.0544134,14.376788 31.2945675,15.130252 C30.5347217,15.8837161 30.1547988,16.9288328 30.1547988,18.2656023 C30.1547988,18.6727078 30.2251875,19.0921194 30.3657447,19.5233894 C30.5063018,19.9547714 30.6664665,20.3224976 30.8459082,20.6262326 C31.0253499,20.9299676 31.2288053,21.2263189 31.4561642,21.514951 C31.6835231,21.8035831 31.8496361,22.0024932 31.9542829,22.1119049 C32.0589297,22.2212047 32.1412151,22.300187 32.2010291,22.3487398 L37.8011745,27.8357706 C37.9089056,27.9452941 38.0405403,28 38.1960784,28 C38.3516166,28 38.4832513,27.9452941 38.5909824,27.8359943 L44.1822053,22.367087 C45.5523072,20.9757236 46.2373581,19.6085247 46.2373581,18.2656023 C46.2373581,16.9288328 45.857325,15.8837161 45.0974792,15.130252 C44.3376333,14.3766761 43.2876405,14 41.9472803,14 Z" id="Shape"></path>
                            </g>
                        </g>
                    </g>
                </g>
            </g>
        </g>
    </g>
</svg>