<?xml version="1.0" encoding="UTF-8" standalone="no"?>
<svg width="27,5px" height="21px" viewBox="0 0 19 14" version="1.1" xmlns="http://www.w3.org/2000/svg" xmlns:xlink="http://www.w3.org/1999/xlink" xmlns:sketch="http://www.bohemiancoding.com/sketch/ns">
    <!-- Generator: Sketch 3.4.4 (17249) - http://www.bohemiancoding.com/sketch -->
    <style>
        #message-front{
            fill: #707070;
        }
        #message-front:hover{
            fill: #3498db;
        }
        #message-back{
            fill: #B8B8B8;
        }
        #message-back:hover{
            fill: #3498db;
            opacity: 0.5;
        }
        #message-back:hover + #message-front{
            fill: #3498db;
        }
    </style>
    <path id="message-back" d="M7.37254927,4.22222223 L7.37254927,9.92592592 C7.37254927,10.627263 7.99396878,11.2786898 8.60107811,11.1481482 L13.7224109,11.1481482 C13.7224109,11.1481482 13.8478411,11.2775562 13.9105562,11.3422602 C14.7692377,12.2281735 16.4866008,14 16.4866008,14 L16.4866008,11.1481482 L16.8936478,11.1481482 C17.7185401,11.1478571 18.4293088,10.627263 18.4293088,9.92592592 L18.4293088,4.52777777 C18.4293088,3.65142682 17.8078893,3 17.20078,3 L8.60107811,3 C7.99396878,3 7.37254927,3.43034673 7.37254927,4.22222223 Z"></path>
    <path id="message-front" d="M1.84841216,0 C1.07572756,0 0.28483,0.547714023 0.28483,1.55555556 L0.28483,8.81481481 C0.28483,9.70742559 1.07572756,10.5365143 1.84841216,10.3703704 L8.36647201,10.3703704 C8.36647201,10.3703704 8.52611048,10.5350715 8.60592971,10.6174221 C9.6987971,11.7449481 11.8845319,14 11.8845319,14 L11.8845319,10.3703704 L12.4025917,10.3703704 C13.4524547,10.37 14.3570694,9.70742559 14.3570694,8.81481481 L14.3570694,1.94444444 C14.3570694,0.829088678 13.5661719,0 12.7934873,0 L1.84841216,0 L1.84841216,0 Z" transform="translate(7.320950, 7.000000) scale(-1, 1) translate(-7.320950, -7.000000) "></path>
</svg>