<?xml version="1.0" encoding="UTF-8" standalone="no"?>
<svg width="18px" height="14px" viewBox="0 0 18 14" version="1.1" xmlns="http://www.w3.org/2000/svg" xmlns:xlink="http://www.w3.org/1999/xlink" xmlns:sketch="http://www.bohemiancoding.com/sketch/ns">
    <!-- Generator: Sketch 3.4.4 (17249) - http://www.bohemiancoding.com/sketch -->
    <title>message 5 copy + message 5</title>
    <desc>Created with Sketch.</desc>
    <defs></defs>
    <g id="Page-1" stroke="none" stroke-width="1" fill="none" fill-rule="evenodd" sketch:type="MSPage">
        <g id="Home" sketch:type="MSArtboardGroup" transform="translate(-406.000000, -1222.000000)">
            <g id="New" sketch:type="MSLayerGroup">
                <g id="Récemment-créés" transform="translate(156.000000, 908.000000)" sketch:type="MSShapeGroup">
                    <g id="Rectangle-31-+-Rectangle-31-Copy-+-Rectangle-31-Copy-2" transform="translate(26.134159, 78.000000)">
                        <g id="Rectangle-31-+-Rectangle-34">
                            <g id="Bar" transform="translate(0.000000, 222.000000)">
                                <g id="message-5-copy-+-message-5" transform="translate(224.150671, 14.000000)">
                                    <path d="M15.9708749,3 L8.15296411,3 C7.60104654,3 7.03611971,3.3912243 7.03611971,4.11111111 L7.03611971,9.2962963 C7.03611971,9.93387542 7.60104654,10.5260816 8.15296411,10.4074074 L10.665864,10.4074074 L13.1787639,13 L13.1787639,10.4074074 L15.6916638,10.4074074 C16.4415659,10.5260816 17.0877193,9.93387542 17.0877193,9.2962963 L17.0877193,4.38888889 C17.0877193,3.5922062 16.5227925,3 15.9708749,3" id="message-5-copy" fill="#818181"></path>
                                    <path d="M12.5086573,0 L1.56358216,0 C0.790897556,0 0,0.547714023 0,1.55555556 L0,8.81481481 C0,9.70742559 0.790897556,10.5365143 1.56358216,10.3703704 L5.08164201,10.3703704 L8.59970187,14 L8.59970187,10.3703704 L12.1177617,10.3703704 C13.1676247,10.5365143 14.0722394,9.70742559 14.0722394,8.81481481 L14.0722394,1.94444444 C14.0722394,0.829088678 13.2813419,0 12.5086573,0" id="message-5" fill="#B8B8B8" transform="translate(7.036120, 7.000000) scale(-1, 1) translate(-7.036120, -7.000000) "></path>
                                </g>
                            </g>
                        </g>
                    </g>
                </g>
            </g>
        </g>
    </g>
</svg>